<mxfile host="app.diagrams.net" modified="2023-06-11T21:46:30.713Z" agent="Mozilla/5.0 (Windows NT 10.0; Win64; x64) AppleWebKit/537.36 (KHTML, like Gecko) Chrome/114.0.0.0 Safari/537.36" version="21.3.8" etag="psAvqFK98cK4wtQV4VO2" type="github">
  <diagram name="PÃ¡gina-1" id="FmC6b1GrKKoH16i_P30H">
    <mxGraphModel>
      <root>
        <mxCell id="0" />
        <mxCell id="1" parent="0" />
      </root>
    </mxGraphModel>
  </diagram>
</mxfile>
